<svg viewBox="0 0 64 64" fill="none" xmlns="http://www.w3.org/2000/svg"><path fill-rule="evenodd" clip-rule="evenodd" d="M32 64c17.673 0 32-14.327 32-32C64 14.327 49.673 0 32 0 14.327 0 0 14.327 0 32c0 17.673 14.327 32 32 32zm-5.805-18h-9.072l4.816-21.168c-1.12.056-2.464.112-4.592.112.784-4.256 4.48-6.776 7.952-6.776 2.352 0 4.536 1.12 5.768 3.472l-2.912 9.408.448.168c2.968-5.936 6.328-10.808 9.016-12.768a8.88 8.88 0 012.016-.224c4.032 0 6.384 2.184 6.384 5.656 0 .728-.112 1.456-.28 2.24l-3.192 13.72c1.104-.033 1.87-.103 2.569-.167.506-.046.978-.09 1.519-.113-.84 4.312-4.536 6.888-8.064 6.888-2.352 0-4.536-1.176-5.712-3.64l4.312-16.632a5.737 5.737 0 00-1.624-.896c-2.968 3.416-5.544 7.448-7.728 12.432L26.195 46z" fill="#000"/></svg>
